<svg width="960" height="540" viewBox="0 0 960 540" xmlns="http://www.w3.org/2000/svg" role="img" aria-labelledby="title desc">
  <title id="title">invoahitech hero graphic</title>
  <desc id="desc">Abstract tactical background with a stylised air rifle silhouette on a dark grid.</desc>
  <defs>
    <linearGradient id="bg" x1="0" y1="0" x2="1" y2="1">
      <stop offset="0" stop-color="#0b1120"/>
      <stop offset="1" stop-color="#020617"/>
    </linearGradient>
    <linearGradient id="accent" x1="0" y1="0" x2="1" y2="0">
      <stop offset="0" stop-color="#38bdf8"/>
      <stop offset="1" stop-color="#0ea5e9"/>
    </linearGradient>
  </defs>
  <rect width="960" height="540" fill="url(#bg)"/>
  <g opacity="0.25" stroke="#1f2937" stroke-width="1">
    <path d="M0 60H960M0 120H960M0 180H960M0 240H960M0 300H960M0 360H960M0 420H960M0 480H960"/>
    <path d="M80 0V540M160 0V540M240 0V540M320 0V540M400 0V540M480 0V540M560 0V540M640 0V540M720 0V540M800 0V540M880 0V540"/>
  </g>
  <g transform="translate(120 220)" fill="none" stroke-linecap="round" stroke-linejoin="round">
    <path d="M40 40H520" stroke="url(#accent)" stroke-width="8"/>
    <path d="M60 60H220L260 40H420L460 60H520" stroke="#e5e7eb" stroke-width="4"/>
    <path d="M80 80H180V110H80Z" stroke="#9ca3af" stroke-width="3"/>
    <circle cx="160" cy="116" r="14" stroke="#38bdf8" stroke-width="3"/>
    <circle cx="500" cy="96" r="26" stroke="#111827" stroke-width="10"/>
    <circle cx="500" cy="96" r="18" stroke="#38bdf8" stroke-width="4"/>
  </g>
  <rect x="640" y="80" width="220" height="60" rx="10" fill="#020617" stroke="#1f2937"/>
  <text x="655" y="112" fill="#e5e7eb" font-family="system-ui, -apple-system, BlinkMacSystemFont, 'Segoe UI', sans-serif" font-size="18">
    invoahitech
  </text>
  <text x="655" y="134" fill="#9ca3af" font-family="system-ui, -apple-system, BlinkMacSystemFont, 'Segoe UI', sans-serif" font-size="12">
    Precision Air Guns " Made in India
  </text>
</svg>
